<svg xmlns="http://www.w3.org/2000/svg" width="1461" height="498" fill="none" xmlns:v="https://vecta.io/nano"><path d="M435.301 193.026h32.249c8.373 0 15.164 6.757 15.164 15.113v64.04c0 12.61 16.15 17.92 23.672 7.777l60.075-80.82c2.859-3.846 7.386-6.127 12.185-6.127h38.615c12.321 0 19.503 13.853 12.372 23.86l-83.458 117.035a13.05 13.05 0 0 0-.068 15.045l86.385 123.587c6.961 9.956-.102 23.605-12.287 23.741l-39.346.425c-5.004.051-9.718-2.348-12.594-6.45l-60.943-86.692c-5.139-7.317-15.98-7.454-21.307-.272-1.668 2.247-2.57 4.97-2.57 7.761v70.609c0 8.339-6.79 15.112-15.163 15.112h-32.998c-8.373 0-15.164-6.756-15.164-15.112V208.105c0-8.339 6.791-15.113 15.164-15.113l.017.034zm456.023 0h32.25c8.373 0 15.164 6.671 15.164 14.891v156.841c0 25.664-4.97 48.469-14.908 68.448s-23.911 35.586-41.916 46.784c-18.006 11.215-38.565 16.814-61.658 16.814-35.28 0-63.955-12.287-86.062-36.862-22.107-24.557-33.152-56.297-33.152-95.184V207.917c0-8.22 6.79-14.891 15.163-14.891h32.625c8.373 0 15.163 6.671 15.163 14.891v155.225c0 19.434 4.85 35.228 14.534 47.379s23.213 18.499 40.605 19.043c17.376 0 31.229-5.803 41.542-17.409 10.296-11.607 15.453-27.945 15.453-49.013V207.917c0-8.22 6.791-14.891 15.164-14.891h.033zm90.266 289.176V207.815c0-8.39 6.791-15.197 15.164-15.197h32.316c8.36 0 15.13 6.756 15.17 15.129l.97 212.917c.03 8.373 6.82 15.129 15.16 15.129h78.96c8.38 0 15.17 6.808 15.17 15.198v31.211c0 8.39-6.79 15.198-15.17 15.198H996.737c-8.373 0-15.164-6.808-15.164-15.198h.017zm272.46 15.215h-33.56c-10.21 0-17.51-9.905-14.5-19.674l82-265.18c3.88-12.56 15.57-21.052 28.71-20.847l37.61.578c12.97.204 24.3 8.833 27.94 21.29l77.25 264.381c2.84 9.717-4.44 19.435-14.57 19.435h-33.13c-6.78 0-12.73-4.493-14.59-11.028l-9.03-31.74c-1.84-6.484-7.73-10.959-14.47-11.028l-79.95-.646c-6.64-.051-12.53 4.22-14.57 10.534l-10.72 33.356c-2.01 6.28-7.85 10.534-14.45 10.534l.03.035zm57.22-113.581h46.65c8.52 0 14.63-8.22 12.18-16.389l-18.84-72.413c-4.46-14.874-25.34-15.282-30.39-.613l-21.65 72.533c-2.84 8.271 3.3 16.882 12.03 16.882h.02z" fill="#7e3829"/><path d="M450.144 155.587H420.12L463.695 26.66l37.567.522 41.003 128.406h-29.85l-7.036-22.617-47.177-.348-8.066 22.965h.008zm13.037-47.85h37.567l-17.501-53.416-20.074 53.416h.008zm141.189 11.138v37.06h-28.821V26.66h54.902c7.551 0 14.552 1.159 21.016 3.478s11.979 5.479 16.559 9.486c4.572 4 8.145 8.877 10.725 14.617 2.572 5.74 3.862 11.921 3.862 18.53 0 8.935-2.203 16.907-6.601 23.922-4.407 7.022-10.61 12.471-18.61 16.356-8.008 3.884-17.103 5.826-27.277 5.826h-25.733-.022zm-.689-69.25v43.676h20.762c4.117 0 8.001-.551 11.668-1.652 3.659-1.102 6.833-2.609 9.522-4.522s4.805-4.232 6.348-6.957 2.319-5.653 2.319-8.79c0-2.435-.485-4.812-1.456-7.131s-2.377-4.348-4.204-6.087c-1.833-1.739-3.971-3.276-6.435-4.609s-5.203-2.319-8.232-2.957-6.203-.957-9.522-.957h-20.762l-.008-.015zm125.993 89.867c-12.24-12.008-18.356-27.632-18.356-46.894s6.116-34.886 18.356-46.894 28.132-18.008 47.691-18.008 35.48 6 47.778 18.008c12.291 12.008 18.443 27.639 18.443 46.894s-6.116 34.886-18.356 46.894-28.197 18.008-47.865 18.008-35.458-6-47.691-18.008zm38.857-85.78c-2.92.638-5.602 1.565-8.065 2.783s-4.747 2.696-6.863 4.435-4.008 3.739-5.66 6c-1.659 2.261-3.087 4.696-4.29 7.312-1.203 2.609-2.087 5.45-2.66 8.522s-.855 6.24-.855 9.479c0 11.602 3.486 21.052 10.465 28.364s15.957 11.022 26.936 11.138c7.203 0 13.667-1.681 19.385-5.044s10.146-8.029 13.298-14.008c3.145-5.971 4.718-12.79 4.718-20.443s-1.573-14.472-4.718-20.443-7.58-10.638-13.298-14.008c-5.718-3.363-12.182-5.044-19.385-5.044-3.087 0-6.087.319-9.008.957zm138.022-1.304h-38.429V27.001h106.882v25.407h-38.429v103.875h-30.024V52.408zm132.497 78.649l63.81.348.18 24.182h-92.65V26.486h92.13V51.19l-63.47-.174v25.407h63.47v27.14l-63.31.174-.17 27.32h.01zm103.61-103.709h28.82v50.286l40.66-50.285h34.83l-48.72 62.815 49.75 65.424-34.99.348-35-45.763-6.17 7.66v38.103h-29.16V27.355l-.02-.007zM200.133 301.567c0 28.031-22.725 50.756-50.763 50.756s-50.756-22.717-50.756-50.756 22.725-50.755 50.756-50.755 50.763 22.725 50.763 50.755z" fill="#9c163c"/><path d="M248.599 256.801a111.4 111.4 0 0 1-16.736-1.256c-7.603-1.153-13.532 6.553-10.371 13.567 4.724 10.482 7.236 22.186 6.92 34.489-1.06 42.092-35.497 76.256-77.598 77.017-44.707.803-81.144-35.523-80.503-80.204.615-43.357 35.702-77.914 79.059-77.914h.786c7.091.068 11.268-7.877 7.253-13.721-5.673-8.261-10.261-17.334-13.541-27.005-1.914-5.638-8.449-8.218-13.721-5.442-15.394 8.133-32.951 12.738-51.575 12.738-23.528 0-45.339-7.347-63.262-19.88C8.859 164.679 0 169.301 0 177.178v275.348c0 25.057 20.307 45.365 45.365 45.365h236.391c25.057 0 45.364-20.308 45.364-45.365V244.934c0-7.868-8.851-12.498-15.309-7.988-17.916 12.508-39.709 19.846-63.22 19.846l.008.009z" fill="#7e3829"/><path d="M248.599 224.764c43.366 0 78.521-35.155 78.521-78.521s-35.155-78.521-78.521-78.521-78.52 35.155-78.52 78.521 35.155 78.521 78.52 78.521zM78.581 157.042c43.366 0 78.521-35.155 78.521-78.521S121.947 0 78.581 0 .06 35.155.06 78.521s35.155 78.521 78.521 78.521z" fill="#9c163c"/></svg>